<svg height="512pt" viewBox="0 -2 512 511" width="512pt" xmlns="http://www.w3.org/2000/svg"><path d="m225.359375 288.316406c-18.753906 0-34.011719-15.257812-34.011719-34.015625 0-18.753906 15.257813-34.011719 34.011719-34.011719s34.011719 15.257813 34.011719 34.011719c0 18.757813-15.257813 34.015625-34.011719 34.015625zm279.140625-34.015625c0-18.753906-15.257812-34.011719-34.015625-34.011719-18.753906 0-34.011719 15.257813-34.011719 34.011719 0 18.757813 15.257813 34.015625 34.011719 34.015625 18.757813 0 34.015625-15.257812 34.015625-34.015625zm-428.972656-106.140625c0-18.757812-15.257813-34.015625-34.011719-34.015625s-34.015625 15.257813-34.015625 34.015625c0 18.753906 15.257812 34.011719 34.015625 34.011719 18.753906 0 34.011719-15.257813 34.011719-34.011719zm61.28125 106.140625c0-18.753906-15.257813-34.011719-34.011719-34.011719-18.757813 0-34.015625 15.257813-34.015625 34.011719 0 18.757813 15.257812 34.015625 34.015625 34.015625 18.753906 0 34.011719-15.257812 34.011719-34.015625zm-61.28125 106.144531c0-18.753906-15.257813-34.015624-34.011719-34.015624s-34.015625 15.261718-34.015625 34.015624c0 18.753907 15.257812 34.011719 34.015625 34.011719 18.753906 0 34.011719-15.257812 34.011719-34.011719zm61.28125 106.144532c0-18.757813-15.257813-34.015625-34.011719-34.015625-18.757813 0-34.015625 15.257812-34.015625 34.015625 0 18.753906 15.257812 34.011718 34.015625 34.011718 18.753906 0 34.011719-15.257812 34.011719-34.011718zm122.566406 0c0-18.757813-15.261719-34.015625-34.015625-34.015625s-34.011719 15.257812-34.011719 34.015625c0 18.753906 15.257813 34.011718 34.011719 34.011718s34.015625-15.257812 34.015625-34.011718zm61.277344-106.144532c0-18.753906-15.257813-34.015624-34.011719-34.015624s-34.011719 15.261718-34.011719 34.015624c0 18.753907 15.257813 34.011719 34.011719 34.011719s34.011719-15.257812 34.011719-34.011719zm-183.585938-318.429687c0-18.753906-15.257812-34.011719-34.011718-34.011719-18.757813 0-34.015626 15.257813-34.015626 34.011719s15.257813 34.011719 34.011719 34.011719c18.757813 0 34.015625-15.257813 34.015625-34.011719zm122.308594 0c0-18.753906-15.261719-34.011719-34.015625-34.011719s-34.011719 15.257813-34.011719 34.011719 15.257813 34.011719 34.011719 34.011719 34.015625-15.257813 34.015625-34.011719zm61.277344 106.144531c0-18.757812-15.257813-34.015625-34.011719-34.015625s-34.011719 15.257813-34.011719 34.015625c0 18.753906 15.257813 34.011719 34.011719 34.011719s34.011719-15.257813 34.011719-34.011719zm122.566406 212.285156c0-18.753906-15.257812-34.015624-34.015625-34.015624-18.753906 0-34.011719 15.261718-34.011719 34.015624 0 18.753907 15.257813 34.011719 34.011719 34.011719 18.757813.003907 34.015625-15.257812 34.015625-34.011719zm0-212.285156c0-18.757812-15.257812-34.015625-34.015625-34.015625-18.753906 0-34.011719 15.257813-34.011719 34.015625 0 18.753906 15.257813 34.011719 34.011719 34.011719 18.757813 0 34.015625-15.257813 34.015625-34.011719zm0 0" fill="#bddbff"/><path d="m134.316406 267.058594c1.601563-3.941406 2.492188-8.246094 2.492188-12.757813 0-4.507812-.886719-8.8125-2.492188-12.753906h59.519532c-1.601563 3.941406-2.488282 8.242187-2.488282 12.753906s.886719 8.816407 2.488282 12.757813zm-58.320312 8.152344-29.765625 51.554687c8.9375 1.246094 16.773437 5.976563 22.085937 12.773437l29.761719-51.558593c-8.9375-1.242188-16.769531-5.972657-22.082031-12.769531zm0-41.816407c5.3125-6.796875 13.144531-11.527343 22.082031-12.773437l-29.761719-51.554688c-5.316406 6.796875-13.148437 11.527344-22.085937 12.773438zm360.007812-64.328125c-5.3125 6.796875-13.144531 11.527344-22.082031 12.773438l29.761719 51.554687c5.316406-6.796875 13.148437-11.527343 22.085937-12.773437zm-205.929687 51.554688c8.9375 1.246094 16.773437 5.976562 22.085937 12.773437l14.886719-25.785156 14.878906-25.769531c-8.941406-1.246094-16.773437-5.976563-22.085937-12.773438l-14.886719 25.785156zm88.089843-85.21875c1.601563 3.941406 2.488282 8.246094 2.488282 12.757812 0 4.507813-.886719 8.8125-2.488282 12.753906h59.519532c-1.601563-3.941406-2.492188-8.242187-2.492188-12.753906 0-4.511718.886719-8.816406 2.492188-12.757812zm-51.117187 165.59375-14.886719-25.785156c-5.316406 6.796874-13.148437 11.523437-22.085937 12.769531l14.878906 25.773437 14.886719 25.785156c5.3125-6.796874 13.148437-11.527343 22.085937-12.773437zm-168.964844 131.914062-29.765625-51.558594c-5.316406 6.796876-13.148437 11.527344-22.085937 12.773438l29.765625 51.558594c5.3125-6.796875 13.144531-11.53125 22.085937-12.773438zm131.992188-357.214844 29.765625 51.554688c5.3125-6.796875 13.148437-11.527344 22.085937-12.769531l-29.765625-51.558594c-5.3125 6.796875-13.148437 11.527344-22.085937 12.773437zm213.609375 199.515626-29.761719 51.554687c8.9375 1.246094 16.769531 5.976563 22.082031 12.773437l29.765625-51.558593c-8.9375-1.242188-16.769531-5.972657-22.085937-12.769531zm-183.84375 106.140624-29.765625 51.554688c8.9375 1.246094 16.773437 5.976562 22.085937 12.773438l29.765625-51.554688c-8.9375-1.246094-16.773437-5.976562-22.085937-12.773438zm117.84375-8.148437c-1.601563-3.941406-2.492188-8.246094-2.492188-12.757813 0-4.511718.886719-8.8125 2.492188-12.757812h-59.519532c1.601563 3.941406 2.488282 8.246094 2.488282 12.757812 0 4.507813-.886719 8.8125-2.488282 12.757813zm-243.109375-343.945313c1.601562 3.941407 2.492187 8.246094 2.492187 12.757813s-.890625 8.8125-2.492187 12.757813h59.261719c-1.601563-3.941407-2.492188-8.246094-2.492188-12.757813 0-4.507813.890625-8.8125 2.492188-12.757813zm59.261719 450.085938c-1.601563-3.941406-2.488282-8.246094-2.488282-12.753906 0-4.511719.886719-8.816406 2.488282-12.757813h-59.519532c1.601563 3.941407 2.492188 8.246094 2.492188 12.757813 0 4.507812-.886719 8.8125-2.492188 12.753906zm-125.519532-352.089844 29.78125-51.589844c-8.921875-1.308593-16.726562-6.09375-21.992187-12.929687l-29.875 51.746094c8.9375 1.246093 16.769531 5.972656 22.085937 12.773437zm0 0" fill="#57a4ff"/><path d="m336.070312 312.300781-2.648437-16.015625c-1.683594-.582031-3.328125-1.265625-4.933594-2.046875l-13.199219 9.457031-16.757812-16.761718 9.453125-13.199219c-.78125-1.601563-1.464844-3.25-2.046875-4.933594l-16.015625-2.648437v-23.699219l16.015625-2.652344c.582031-1.683593 1.265625-3.328125 2.046875-4.929687l-9.453125-13.203125 16.757812-16.757813 13.199219 9.453125c1.601563-.78125 3.25-1.464843 4.933594-2.042969l2.648437-16.019531h23.703126l2.648437 16.019531c1.683594.578126 3.332031 1.261719 4.933594 2.042969l13.199219-9.453125 16.757812 16.757813-9.453125 13.203125c.78125 1.601562 1.464844 3.246094 2.046875 4.929687l16.015625 2.652344v23.699219l-16.015625 2.652344c-.582031 1.679687-1.265625 3.328124-2.046875 4.929687l9.453125 13.203125-16.757812 16.757812-13.199219-9.453124c-1.601563.78125-3.25 1.460937-4.933594 2.042968l-2.648437 16.015625zm11.851563-75.074219c-9.414063 0-17.078125 7.660157-17.078125 17.074219 0 9.417969 7.664062 17.078125 17.078125 17.078125 9.417969 0 17.078125-7.660156 17.078125-17.078125 0-9.414062-7.660156-17.074219-17.078125-17.074219zm0 0" fill="#c6c5ca"/><g fill="#57a4ff"><path d="m286.640625 182.171875c5.378906 0 10.472656-1.253906 15-3.488281-11.253906-5.554688-19.011719-17.152344-19.011719-30.523438 0-13.375 7.757813-24.972656 19.011719-30.523437-4.527344-2.234375-9.621094-3.492188-15-3.492188-18.753906 0-34.011719 15.257813-34.011719 34.011719 0 18.757812 15.257813 34.015625 34.011719 34.015625zm0 0"/><path d="m225.359375 76.027344c5.378906 0 10.472656-1.253906 15-3.488282-11.253906-5.554687-19.011719-17.148437-19.011719-30.523437s7.757813-24.972656 19.011719-30.523437c-4.527344-2.234376-9.621094-3.492188-15-3.492188-18.753906 0-34.015625 15.261719-34.015625 34.015625s15.261719 34.011719 34.015625 34.011719zm0 0"/><path d="m466.472656 254.300781c0-13.375 7.757813-24.96875 19.011719-30.523437-4.527344-2.234375-9.621094-3.488282-15-3.488282-18.753906 0-34.011719 15.257813-34.011719 34.011719 0 18.757813 15.257813 34.015625 34.011719 34.015625 5.378906 0 10.472656-1.257812 15-3.492187-11.253906-5.550781-19.011719-17.148438-19.011719-30.523438zm0 0"/><path d="m282.625 360.445312c0-13.375 7.761719-24.972656 19.015625-30.523437-4.527344-2.234375-9.621094-3.492187-15-3.492187-18.753906 0-34.015625 15.261718-34.015625 34.015624 0 18.753907 15.261719 34.011719 34.015625 34.011719 5.378906 0 10.472656-1.253906 15-3.488281-11.253906-5.554688-19.015625-17.148438-19.015625-30.523438zm0 0"/><path d="m225.359375 288.316406c5.378906 0 10.472656-1.257812 15-3.492187-11.253906-5.550781-19.011719-17.148438-19.011719-30.523438 0-13.371093 7.757813-24.96875 19.011719-30.523437-4.527344-2.234375-9.621094-3.488282-15-3.488282-18.753906 0-34.015625 15.257813-34.015625 34.011719 0 18.757813 15.261719 34.015625 34.015625 34.015625zm0 0"/><path d="m409.203125 182.171875c5.382813 0 10.476563-1.253906 15-3.488281-11.253906-5.554688-19.011719-17.152344-19.011719-30.523438 0-13.375 7.757813-24.972656 19.011719-30.523437-4.523437-2.234375-9.617187-3.492188-15-3.492188-18.753906 0-34.011719 15.257813-34.011719 34.011719 0 18.757812 15.257813 34.015625 34.011719 34.015625zm0 0"/><path d="m41.515625 182.171875c5.378906 0 10.472656-1.253906 15-3.488281-11.253906-5.554688-19.015625-17.152344-19.015625-30.523438 0-13.375 7.761719-24.972656 19.015625-30.523437-4.527344-2.234375-9.621094-3.492188-15-3.492188-18.757813 0-34.015625 15.257813-34.015625 34.011719 0 18.757812 15.257812 34.015625 34.015625 34.015625zm0 0"/><path d="m221.347656 466.589844c0-13.375 7.757813-24.972656 19.011719-30.527344-4.527344-2.234375-9.621094-3.488281-15-3.488281-18.753906 0-34.015625 15.257812-34.015625 34.011719 0 18.757812 15.257812 34.015624 34.015625 34.015624 5.378906 0 10.472656-1.253906 15-3.488281-11.253906-5.554687-19.011719-17.148437-19.011719-30.523437zm0 0"/><path d="m405.191406 360.445312c0-13.375 7.757813-24.972656 19.011719-30.523437-4.527344-2.234375-9.617187-3.492187-15-3.492187-18.753906 0-34.011719 15.261718-34.011719 34.015624 0 18.753907 15.257813 34.011719 34.011719 34.011719 5.382813 0 10.472656-1.253906 15-3.488281-11.253906-5.554688-19.011719-17.148438-19.011719-30.523438zm0 0"/><path d="m98.78125 254.300781c0-13.375 7.761719-24.96875 19.015625-30.523437-4.527344-2.234375-9.621094-3.488282-15-3.488282-18.757813 0-34.015625 15.257813-34.015625 34.011719 0 18.757813 15.257812 34.015625 34.015625 34.015625 5.378906 0 10.472656-1.257812 15-3.492187-11.253906-5.550781-19.015625-17.148438-19.015625-30.523438zm0 0"/><path d="m98.78125 466.589844c0-13.375 7.761719-24.972656 19.015625-30.527344-4.527344-2.234375-9.621094-3.488281-15-3.488281-18.757813 0-34.015625 15.257812-34.015625 34.011719 0 18.757812 15.257812 34.015624 34.015625 34.015624 5.378906 0 10.472656-1.253906 15-3.488281-11.253906-5.554687-19.015625-17.148437-19.015625-30.523437zm0 0"/><path d="m103.050781 76.027344c5.382813 0 10.472657-1.253906 15-3.488282-11.253906-5.554687-19.011719-17.148437-19.011719-30.523437s7.761719-24.972656 19.011719-30.523437c-4.527343-2.234376-9.617187-3.492188-15-3.492188-18.753906 0-34.011719 15.261719-34.011719 34.015625s15.257813 34.011719 34.011719 34.011719zm0 0"/><path d="m37.5 360.445312c0-13.375 7.761719-24.972656 19.015625-30.523437-4.527344-2.234375-9.621094-3.492187-15-3.492187-18.757813 0-34.015625 15.261718-34.015625 34.015624 0 18.753907 15.257812 34.011719 34.015625 34.011719 5.378906 0 10.472656-1.253906 15-3.488281-11.253906-5.554688-19.015625-17.148438-19.015625-30.523438zm0 0"/></g><path d="m358.492188 294.238281-13.203126 9.457031-16.757812-16.761718 9.453125-13.199219c-.78125-1.601563-1.464844-3.25-2.046875-4.933594l-16.015625-2.648437v-23.699219l16.015625-2.652344c.582031-1.683593 1.265625-3.328125 2.046875-4.929687l-9.453125-13.203125 16.757812-16.757813 13.203126 9.453125c1.441406-.703125 2.921874-1.328125 4.429687-1.867187-.164063-.0625-.332031-.121094-.5-.175782l-2.648437-16.019531h-23.703126l-2.648437 16.019531c-1.683594.578126-3.328125 1.261719-4.933594 2.042969l-13.199219-9.453125-16.757812 16.757813 9.453125 13.203125c-.78125 1.601562-1.464844 3.246094-2.046875 4.929687l-16.015625 2.652344v23.699219l16.015625 2.652344c.582031 1.679687 1.265625 3.328124 2.046875 4.929687l-9.453125 13.203125 16.757812 16.757812 13.199219-9.453124c1.605469.78125 3.25 1.460937 4.933594 2.042968l2.648437 16.019532h23.703126l2.648437-16.019532c.167969-.058594.335937-.117187.5-.175781-1.507813-.542969-2.988281-1.164063-4.429687-1.871094zm0 0" fill="#898890"/><path d="m470.484375 212.785156c-.191406 0-.382813.003906-.574219.003906l-25.050781-43.386718c3.71875-6.21875 5.859375-13.488282 5.859375-21.246094 0-22.890625-18.625-41.511719-41.515625-41.511719-15.539063 0-29.113281 8.582031-36.226563 21.257813h-50.109374c-7.113282-12.675782-20.6875-21.257813-36.226563-21.257813-22.894531 0-41.515625 18.621094-41.515625 41.511719 0 7.757812 2.140625 15.027344 5.859375 21.246094l-25.050781 43.390625c-.191406-.003907-.382813-.003907-.574219-.003907-22.890625 0-41.515625 18.621094-41.515625 41.515626 0 22.890624 18.625 41.511718 41.515625 41.511718.191406 0 .382813 0 .574219-.003906l25.050781 43.390625c-3.71875 6.21875-5.859375 13.484375-5.859375 21.246094 0 22.890625 18.621094 41.511719 41.515625 41.511719 15.539063 0 29.113281-8.582032 36.226563-21.257813h50.109374c7.113282 12.675781 20.6875 21.257813 36.226563 21.257813 22.890625 0 41.515625-18.621094 41.515625-41.511719 0-7.757813-2.140625-15.027344-5.859375-21.246094l25.050781-43.386719c.191406 0 .382813.003906.574219.003906 22.894531-.003906 41.515625-18.625 41.515625-41.519531 0-22.890625-18.621094-41.515625-41.515625-41.515625zm-25.132813 8.496094-20.109374-34.832031c3.265624-1.371094 6.316406-3.148438 9.097656-5.269531l20.109375 34.832031c-3.265625 1.371093-6.320313 3.148437-9.097657 5.269531zm-36.148437-99.636719c14.621094 0 26.515625 11.894531 26.515625 26.515625 0 14.617188-11.894531 26.515625-26.515625 26.515625-14.617187 0-26.511719-11.898437-26.511719-26.515625 0-14.621094 11.894532-26.515625 26.511719-26.515625zm-41.179687 21.257813c-.21875 1.722656-.332032 3.476562-.332032 5.257812 0 1.777344.113282 3.535156.332032 5.253906h-40.199219c.21875-1.71875.328125-3.476562.328125-5.253906 0-1.78125-.113282-3.535156-.328125-5.257812zm-81.382813-21.257813c14.621094 0 26.515625 11.894531 26.515625 26.515625 0 14.617188-11.894531 26.515625-26.515625 26.515625s-26.515625-11.898437-26.515625-26.515625c0-14.621094 11.894531-26.515625 26.515625-26.515625zm-25.132813 59.535157c2.777344 2.121093 5.832032 3.898437 9.09375 5.269531l-20.109374 34.832031c-2.777344-2.121094-5.832032-3.898438-9.097657-5.269531zm-62.660156 73.121093c0-14.617187 11.890625-26.515625 26.511719-26.515625s26.515625 11.898438 26.515625 26.515625c0 14.621094-11.894531 26.515625-26.515625 26.515625s-26.511719-11.894531-26.511719-26.515625zm51.644532 33.023438 20.113281 34.828125c-3.265625 1.375-6.320313 3.152344-9.097657 5.273437l-20.109374-34.832031c3.261718-1.371094 6.316406-3.152344 9.09375-5.269531zm36.148437 99.636719c-14.621094 0-26.515625-11.894532-26.515625-26.515626 0-14.621093 11.894531-26.515624 26.515625-26.515624s26.515625 11.894531 26.515625 26.515624c0 14.621094-11.894531 26.515626-26.515625 26.515626zm41.183594-21.257813c.21875-1.722656.328125-3.476563.328125-5.257813s-.113282-3.535156-.328125-5.257812h40.199219c-.21875 1.722656-.332032 3.476562-.332032 5.257812s.113282 3.535157.332032 5.257813zm45.152343-25.515625h-50.109374c-7.113282-12.671875-20.6875-21.257812-36.226563-21.257812-.191406 0-.382813.003906-.574219.003906l-25.050781-43.386719c3.71875-6.21875 5.859375-13.488281 5.859375-21.246094 0-7.757812-2.140625-15.027343-5.859375-21.246093l25.050781-43.386719c.191406.003906.382813.003906.574219.003906 15.539063 0 29.113281-8.582031 36.226563-21.257813h50.109374c7.113282 12.675782 20.6875 21.257813 36.226563 21.257813.195313 0 .386719-.003906.578125-.003906l25.046875 43.386719c-3.71875 6.21875-5.855469 13.488281-5.855469 21.246093 0 7.757813 2.136719 15.023438 5.855469 21.242188l-25.046875 43.390625c-.191406-.003906-.382812-.003906-.578125-.003906-15.539063 0-29.113281 8.585937-36.226563 21.257812zm36.226563 46.773438c-14.617187 0-26.511719-11.894532-26.511719-26.515626 0-14.621093 11.894532-26.515624 26.511719-26.515624 14.621094 0 26.515625 11.894531 26.515625 26.515624 0 14.621094-11.894531 26.515626-26.515625 26.515626zm25.136719-59.535157c-2.78125-2.121093-5.832032-3.898437-9.097656-5.273437l20.109374-34.832032c2.777344 2.121094 5.832032 3.898438 9.097657 5.273438zm36.144531-46.609375c-14.621094 0-26.511719-11.894531-26.511719-26.515625 0-14.617187 11.890625-26.515625 26.511719-26.515625s26.515625 11.898438 26.515625 26.515625c0 14.621094-11.894531 26.515625-26.515625 26.515625zm0 0"/><path d="m264.945312 408.53125-14.453124 25.035156c-2.777344-2.121094-5.832032-3.898437-9.097657-5.269531l14.460938-25.058594-12.992188-7.496093-16.929687 29.335937c-.191406-.003906-.382813-.003906-.574219-.003906-15.539063 0-29.113281 8.582031-36.226563 21.253906h-50.109374c-7.113282-12.671875-20.6875-21.253906-36.226563-21.253906-.191406 0-.382813 0-.574219.003906l-25.050781-43.390625c3.71875-6.21875 5.859375-13.484375 5.859375-21.242188 0-7.757812-2.140625-15.027343-5.859375-21.246093l25.050781-43.386719c.191406 0 .382813.003906.574219.003906 15.542969 0 29.113281-8.585937 36.230469-21.257812h34.8125v-15h-29.859375c.21875-1.722656.332031-3.480469.332031-5.257813 0-1.78125-.113281-3.535156-.332031-5.257812h29.859375v-15h-34.8125c-7.117188-12.675781-20.6875-21.257813-36.230469-21.257813-.191406 0-.382813 0-.574219.003906l-25.050781-43.386718c3.71875-6.21875 5.855469-13.488282 5.855469-21.246094s-2.140625-15.023438-5.859375-21.242188l25.054687-43.394531c.277344.003907.550782.007813.832032.007813 15.539062 0 29.109374-8.582032 36.226562-21.253906h49.851562c7.113282 12.671874 20.6875 21.253906 36.226563 21.253906.191406 0 .382813 0 .574219-.003906l16.941406 29.34375 12.988281-7.5-14.46875-25.0625c3.265625-1.371094 6.320313-3.148438 9.097657-5.269532l14.460937 25.046875 12.992187-7.5-16.929687-29.324219c3.71875-6.21875 5.855469-13.484374 5.855469-21.242187 0-22.894531-18.621094-41.515625-41.511719-41.515625-15.542969 0-29.113281 8.582031-36.230469 21.257812h-49.847656c-7.117188-12.675781-20.6875-21.257812-36.230469-21.257812-22.890625 0-41.515625 18.621094-41.515625 41.515625 0 7.664063 2.089844 14.851563 5.730469 21.023437l-25.175781 43.609376c-.191406-.003907-.382813-.003907-.574219-.003907-22.894531 0-41.515625 18.625-41.515625 41.511719 0 22.894531 18.621094 41.515625 41.515625 41.515625.191406 0 .382813 0 .574219-.003906l25.050781 43.390625c-3.71875 6.21875-5.859375 13.484375-5.859375 21.242187 0 7.757813 2.140625 15.027344 5.859375 21.246094l-25.050781 43.386719c-.191406 0-.382813-.003906-.574219-.003906-22.894531 0-41.515625 18.625-41.515625 41.515624 0 22.890626 18.621094 41.515626 41.515625 41.515626.191406 0 .382813-.003907.574219-.003907l25.050781 43.386719c-3.71875 6.21875-5.859375 13.488281-5.859375 21.246094 0 22.890625 18.621094 41.515625 41.515625 41.515625 15.539063 0 29.113281-8.585938 36.226563-21.257813h50.109374c7.113282 12.671875 20.6875 21.257813 36.226563 21.257813 22.894531 0 41.515625-18.625 41.515625-41.515625 0-7.757813-2.140625-15.027344-5.859375-21.246094l16.921875-29.3125zm-39.585937-393.03125c14.621094 0 26.515625 11.894531 26.515625 26.515625s-11.894531 26.515625-26.515625 26.515625-26.515625-11.894531-26.515625-26.515625 11.894531-26.515625 26.515625-26.515625zm-41.183594 21.257812c-.21875 1.722657-.328125 3.476563-.328125 5.257813s.113282 3.535156.328125 5.257813h-39.941406c.21875-1.722657.332031-3.476563.332031-5.257813s-.113281-3.535156-.332031-5.257813zm-54.867187 217.542969c0 14.621094-11.894532 26.515625-26.511719 26.515625-14.621094 0-26.515625-11.894531-26.515625-26.515625 0-14.617187 11.894531-26.515625 26.515625-26.515625 14.617187 0 26.511719 11.898438 26.511719 26.515625zm-26.253906-238.800781c14.617187 0 26.511718 11.894531 26.511718 26.515625s-11.894531 26.515625-26.511718 26.515625c-14.621094 0-26.515626-11.894531-26.515626-26.515625s11.894532-26.515625 26.515626-26.515625zm-25.316407 59.398438c2.769531 2.136718 5.8125 3.929687 9.070313 5.320312l-20.160156 34.921875c-2.78125-2.121094-5.832032-3.898437-9.097657-5.273437zm-62.738281 73.257812c0-14.617188 11.894531-26.511719 26.515625-26.511719s26.511719 11.894531 26.511719 26.511719c0 14.621094-11.890625 26.515625-26.511719 26.515625s-26.515625-11.894531-26.515625-26.515625zm51.648438 33.023438 20.109374 34.832031c-3.265624 1.371093-6.316406 3.148437-9.097656 5.269531l-20.109375-34.832031c3.265625-1.371094 6.320313-3.148438 9.097657-5.269531zm11.011718 106.144531c2.78125 2.117187 5.832032 3.898437 9.097656 5.269531l-20.109374 34.832031c-2.777344-2.121093-5.832032-3.898437-9.097657-5.269531zm-62.660156 73.121093c0-14.621093 11.894531-26.515624 26.515625-26.515624s26.511719 11.894531 26.511719 26.515624c0 14.621094-11.890625 26.515626-26.511719 26.515626s-26.515625-11.894532-26.515625-26.515626zm51.648438 33.019532 20.109374 34.832031c-3.265624 1.371094-6.316406 3.148437-9.097656 5.269531l-20.109375-34.832031c3.265625-1.371094 6.316407-3.148437 9.097657-5.269531zm36.148437 99.636718c-14.621094 0-26.515625-11.894531-26.515625-26.511718 0-14.621094 11.894531-26.515625 26.515625-26.515625 14.617187 0 26.511719 11.894531 26.511719 26.515625 0 14.617187-11.894532 26.511718-26.511719 26.511718zm41.179687-21.257812c.21875-1.722656.332032-3.476562.332032-5.253906 0-1.78125-.113282-3.535156-.332032-5.257813h40.199219c-.21875 1.722657-.328125 3.476563-.328125 5.257813 0 1.777344.113282 3.53125.328125 5.253906zm81.382813 21.257812c-14.621094 0-26.515625-11.894531-26.515625-26.511718 0-14.621094 11.894531-26.515625 26.515625-26.515625s26.515625 11.894531 26.515625 26.515625c0 14.617187-11.894531 26.511718-26.515625 26.511718zm0 0"/><path d="m347.921875 229.726562c-13.550781 0-24.578125 11.023438-24.578125 24.574219 0 13.554688 11.027344 24.578125 24.578125 24.578125 13.554687 0 24.578125-11.023437 24.578125-24.578125 0-13.550781-11.023438-24.574219-24.578125-24.574219zm0 34.152344c-5.28125 0-9.578125-4.296875-9.578125-9.578125s4.296875-9.574219 9.578125-9.574219 9.578125 4.292969 9.578125 9.574219-4.296875 9.578125-9.578125 9.578125zm0 0"/><path d="m413.421875 272.515625v-36.425781l-15.386719-2.542969 9.078125-12.683594-25.753906-25.753906-12.679687 9.078125-2.546876-15.386719h-36.421874l-2.546876 15.386719-12.683593-9.078125-25.75 25.753906 9.078125 12.683594-15.386719 2.542969v36.425781l15.386719 2.542969-9.078125 12.683594 25.75 25.753906 12.683593-9.082032 2.546876 15.390626h36.421874l2.546876-15.390626 12.679687 9.082032 25.753906-25.753906-9.078125-12.683594zm-33.671875 21.378906-11.664062-8.355469c-6.738282 3.285157-5.28125 2.675782-12.332032 5.117188l-2.34375 14.144531h-10.976562l-2.339844-14.144531c-7.113281-2.460938-5.660156-1.863281-12.335938-5.117188l-11.664062 8.355469-7.761719-7.765625 8.351563-11.664062c-3.285156-6.742188-2.679688-5.292969-5.117188-12.332032l-14.144531-2.34375v-10.976562l14.144531-2.339844c2.460938-7.113281 1.863282-5.660156 5.117188-12.335937l-8.351563-11.664063 7.761719-7.761718 11.664062 8.351562c6.742188-3.285156 5.296876-2.679688 12.335938-5.117188l2.339844-14.144531h10.976562l2.34375 14.144531c7.109375 2.460938 5.652344 1.863282 12.332032 5.117188l11.664062-8.351562 7.761719 7.761718-8.351563 11.664063c3.292969 6.753906 2.6875 5.308593 5.117188 12.335937l14.144531 2.339844v10.976562l-14.144531 2.34375c-2.460938 7.109376-1.859375 5.652344-5.117188 12.332032l8.351563 11.664062zm0 0"/><path d="m225.359375 275.398438c-5.640625 0-10.941406-2.191407-14.921875-6.175782l10.605469-10.605468c1.148437 1.148437 2.679687 1.78125 4.316406 1.78125 1.632813 0 3.164063-.632813 4.3125-1.78125 1.148437-1.148438 1.78125-2.679688 1.78125-4.3125 0-1.636719-.632813-3.167969-1.78125-4.316407l10.609375-10.609375c3.980469 3.984375 6.171875 9.28125 6.171875 14.925782 0 5.640624-2.191406 10.9375-6.171875 14.921874-3.980469 3.980469-9.28125 6.171876-14.921875 6.171876zm0 0" fill="#fff"/><path d="m470.484375 275.398438c-5.640625 0-10.9375-2.191407-14.921875-6.171876l10.605469-10.609374c1.148437 1.148437 2.683593 1.78125 4.316406 1.78125s3.167969-.632813 4.316406-1.78125c2.378907-2.378907 2.378907-6.25 0-8.632813l10.605469-10.605469c8.226562 8.230469 8.226562 21.617188 0 29.847656-3.980469 3.980469-9.277344 6.171876-14.921875 6.171876zm0 0" fill="#fff"/><path d="m225.359375 487.6875c-5.640625 0-10.941406-2.195312-14.921875-6.175781l10.605469-10.609375c1.148437 1.152344 2.683593 1.785156 4.316406 1.785156s3.164063-.632812 4.3125-1.78125c2.382813-2.382812 2.382813-6.253906 0-8.632812l10.609375-10.605469c8.226562 8.226562 8.226562 21.617187 0 29.84375-3.980469 3.980469-9.28125 6.175781-14.921875 6.175781zm0 0" fill="#fff"/><path d="m286.640625 381.539062c-5.402344 0-10.808594-2.058593-14.921875-6.171874l10.605469-10.605469c1.148437 1.148437 2.683593 1.78125 4.316406 1.78125s3.164063-.632813 4.3125-1.78125c1.148437-1.148438 1.78125-2.683594 1.78125-4.316407 0-1.632812-.628906-3.167968-1.78125-4.3125l10.609375-10.609374c8.226562 8.230468 8.226562 21.617187 0 29.847656-4.113281 4.109375-9.519531 6.167968-14.921875 6.167968zm0 0" fill="#fff"/><path d="m225.359375 63.113281c-5.640625 0-10.941406-2.191406-14.921875-6.175781l10.605469-10.605469c1.148437 1.148438 2.683593 1.78125 4.316406 1.78125s3.164063-.632812 4.3125-1.78125c2.382813-2.378906 2.382813-6.253906 0-8.632812l10.609375-10.605469c8.226562 8.230469 8.226562 21.617188 0 29.84375-3.980469 3.984375-9.28125 6.175781-14.921875 6.175781zm0 0" fill="#fff"/><path d="m286.640625 169.257812c-5.640625 0-10.941406-2.195312-14.921875-6.175781l10.605469-10.605469c1.148437 1.148438 2.683593 1.78125 4.316406 1.78125s3.167969-.636718 4.3125-1.785156c1.152344-1.148437 1.78125-2.679687 1.78125-4.3125 0-1.636718-.628906-3.167968-1.78125-4.316406l10.609375-10.605469c3.980469 3.980469 6.171875 9.28125 6.171875 14.921875s-2.191406 10.941406-6.171875 14.921875-9.28125 6.175781-14.921875 6.175781zm0 0" fill="#fff"/><path d="m409.203125 381.539062c-5.402344 0-10.808594-2.058593-14.921875-6.171874l10.609375-10.605469c1.144531 1.148437 2.679687 1.78125 4.3125 1.78125 1.636719 0 3.167969-.632813 4.316406-1.78125 2.378907-2.378907 2.378907-6.253907 0-8.632813l10.605469-10.605468c8.226562 8.226562 8.226562 21.617187 0 29.84375-4.113281 4.113281-9.515625 6.171874-14.921875 6.171874zm0 0" fill="#fff"/><path d="m409.203125 169.257812c-5.640625 0-10.9375-2.195312-14.921875-6.175781l10.609375-10.605469c1.144531 1.148438 2.679687 1.78125 4.3125 1.78125 1.636719 0 3.167969-.636718 4.316406-1.78125 1.148438-1.152343 1.78125-2.683593 1.78125-4.316406 0-1.636718-.632812-3.167968-1.78125-4.316406l10.605469-10.605469c3.980469 3.980469 6.175781 9.28125 6.175781 14.921875s-2.195312 10.941406-6.175781 14.921875-9.277344 6.175781-14.921875 6.175781zm0 0" fill="#fff"/></svg>