<svg height="512" viewBox="0 0 64 64" width="512" xmlns="http://www.w3.org/2000/svg"><g id="Mining-2" data-name="Mining"><path d="m27 8h10v10h-10z" fill="#57565c"/><path d="m29 2h6v6h-6z" fill="#a0815c"/><g fill="#ffda44"><path d="m7 16h20v-6a89.281 89.281 0 0 0 -20 6z"/><path d="m7 16h20v-6a89.281 89.281 0 0 0 -20 6z"/><path d="m57 16h-20v-6a89.281 89.281 0 0 1 20 6z"/></g><path d="m32 46v16l-13-4v-16z" fill="#c6c5ca"/><path d="m45 42v16l-13 4v-16z" fill="#57565c"/><path d="m45 42-13 4-13-4 13-5z" fill="#e0e0e2"/><path d="m29 18h6v27h-6z" fill="#a0815c"/><path d="m57.381 15.075a91.435 91.435 0 0 0 -19.381-5.917v-1.158a1 1 0 0 0 -1-1h-1v-5a1 1 0 0 0 -1-1h-6a1 1 0 0 0 -1 1v5h-1a1 1 0 0 0 -1 1v1.158a91.435 91.435 0 0 0 -19.381 5.917 1 1 0 0 0 .381 1.925h19v1a1 1 0 0 0 1 1h1v18.463l-9.359 3.6a1.84 1.84 0 0 0 -.235.129 1 1 0 0 0 -.406.808v16a1 1 0 0 0 .706.956l12.982 3.994.016.005a1 1 0 0 0 .588 0l.016-.005 12.982-3.994a1 1 0 0 0 .71-.956v-16a1 1 0 0 0 -.406-.8 1.84 1.84 0 0 0 -.235-.129l-9.359-3.608v-18.463h1a1 1 0 0 0 1-1v-1h19a1 1 0 0 0 .381-1.925zm-27.381-12.075h4v4h-4zm-17.678 12a80.221 80.221 0 0 1 13.678-3.823v3.823zm15.678 28.723-5.943-1.823 5.943-2.294zm-8-.369 11 3.385v13.907l-11-3.385zm24 13.907-11 3.385v-13.907l11-3.385zm-2.057-15.361-5.943 1.823v-4.117zm-7.943 2.439-2 .615-2-.615v-25.339h4zm2-27.339h-8v-8h8zm2-2v-3.823a80.221 80.221 0 0 1 13.678 3.823z"/></g></svg>