<svg id="Layer_1" enable-background="new 0 0 128 128" height="512" viewBox="0 0 128 128" width="512" xmlns="http://www.w3.org/2000/svg"><path d="m113.196 44.727h-13.328v-.52c0-3.045-2.478-5.522-5.523-5.522h-56.69c-3.045 0-5.523 2.478-5.523 5.522v.52h-13.328c-2.473 0-4.484 2.012-4.484 4.484v4.157 29.42c0 2.473 2.012 4.484 4.484 4.484h13.329v.52c0 3.046 2.478 5.523 5.523 5.523h56.689c3.045 0 5.523-2.478 5.523-5.523v-.52h13.329c2.473 0 4.484-2.012 4.484-4.484v-29.42-4.157c0-2.472-2.012-4.484-4.485-4.484z" fill="#e6e7e8"/><path d="m25.692 39.843h.039c1.638-.01 3.175-.658 4.326-1.824 1.151-1.165 1.78-2.71 1.77-4.349-.002-.338-.038-.676-.109-1.033 4.059-3.045 10.402-7.033 18.385-9.548 15.983-5.03 31.661-2.219 46.612 8.356l-3.305 4.117c-.224.278-.282.655-.152.988s.427.571.78.626l17.252 2.654c.356.057.708-.084.932-.362s.282-.655.152-.988l-6.327-16.268c-.13-.333-.427-.571-.78-.626-.353-.054-.708.084-.932.362l-3.241 4.038c-21.212-15.112-40.657-13.539-53.295-9.512-9.381 2.989-16.612 7.678-21.126 11.191-.355-.063-.695-.098-1.018-.092-3.382.022-6.116 2.791-6.095 6.173.02 3.37 2.768 6.097 6.132 6.097z" fill="#e6e7e8"/><path d="m106.308 92.158c-.013 0-.025 0-.039 0-1.638.01-3.175.658-4.326 1.824-1.151 1.165-1.78 2.71-1.77 4.349.002.338.038.676.109 1.034-4.061 3.046-10.407 7.034-18.385 9.547-15.985 5.029-31.662 2.219-46.612-8.355l3.305-4.118c.224-.278.282-.655.152-.988s-.427-.571-.78-.626l-17.252-2.655c-.354-.054-.708.084-.932.362s-.282.655-.152.988l6.327 16.268c.13.333.427.571.78.626.354.055.708-.085.932-.362l3.241-4.038c13.008 9.268 25.35 12.261 35.867 12.26 6.632 0 12.541-1.19 17.429-2.748 9.379-2.988 16.61-7.677 21.126-11.19.358.063.685.087 1.018.091 1.638-.01 3.175-.658 4.326-1.824 1.151-1.165 1.78-2.71 1.77-4.349-.022-3.369-2.77-6.096-6.134-6.096z" fill="#e6e7e8"/><path d="m109.196 41.728h-14.328v40.546h14.329c1.924 0 3.484-1.56 3.484-3.485v-33.577c0-1.924-1.56-3.484-3.485-3.484z" fill="#d4fbff"/><path d="m109.196 41.728h-14.328v7.641h17.813v-4.157c0-1.924-1.56-3.484-3.485-3.484z" fill="#6dc9f7"/><path d="m95.92 44.309c-.414 0-.786.173-1.052.449v2.028c.266.276.638.449 1.052.449.808 0 1.464-.655 1.464-1.463-.001-.808-.656-1.463-1.464-1.463z" fill="#fff"/><path d="m101.861 44.309c-.809 0-1.464.655-1.464 1.464 0 .808.655 1.463 1.464 1.463.808 0 1.464-.655 1.464-1.463-.001-.809-.656-1.464-1.464-1.464z" fill="#0089ef"/><path d="m107.801 44.309c-.808 0-1.463.655-1.463 1.464 0 .808.655 1.463 1.463 1.463.809 0 1.464-.655 1.464-1.463 0-.809-.655-1.464-1.464-1.464z" fill="#fa759e"/><path d="m29.132 41.728h-14.328c-1.924 0-3.484 1.56-3.484 3.484v33.577c0 1.925 1.56 3.485 3.484 3.485h14.329v-40.546z" fill="#d4fbff"/><path d="m29.132 41.728h-14.328c-1.924 0-3.484 1.56-3.484 3.484v4.157h17.813v-7.641z" fill="#6dc9f7"/><path d="m90.345 88.316h-56.689c-2.498 0-4.523-2.025-4.523-4.523v-43.585c0-2.498 2.025-4.523 4.523-4.523h56.689c2.498 0 4.523 2.025 4.523 4.523v43.585c0 2.498-2.025 4.523-4.523 4.523z" fill="#d4fbff"/><path d="m94.87 40.203v5.4h-65.74v-5.4c0-2.49 2.03-4.52 4.53-4.52h56.68c2.5 0 4.53 2.03 4.53 4.52z" fill="#fff"/><path d="m94.87 43.203v2.4h-65.74v-2.4c0-2.49 2.03-4.52 4.53-4.52h56.68c2.5 0 4.53 2.03 4.53 4.52z" fill="#6dc9f7"/><path d="m73.11 39.036c-1.049 0-1.9.85-1.9 1.9 0 1.049.851 1.9 1.9 1.9s1.9-.85 1.9-1.9-.851-1.9-1.9-1.9z" fill="#fff"/><path d="m80.822 39.036c-1.05 0-1.9.85-1.9 1.9 0 1.049.85 1.9 1.9 1.9 1.049 0 1.9-.85 1.9-1.9s-.851-1.9-1.9-1.9z" fill="#0089ef"/><path d="m88.533 39.036c-1.049 0-1.9.85-1.9 1.9 0 1.049.85 1.9 1.9 1.9s1.9-.85 1.9-1.9-.85-1.9-1.9-1.9z" fill="#fa759e"/><path d="m68.195 65.287h-.869c-.112 0-.212-.073-.244-.18-.088-.298-.208-.583-.353-.851-.054-.099-.035-.221.045-.3l.615-.615c.1-.1.1-.262 0-.362l-1.174-1.173c-.008-.008-.016-.015-.026-.023-.1-.076-.244-.069-.335.023l-.615.615c-.009.009-.02.017-.03.026-.078.057-.183.067-.271.02-.269-.146-.554-.264-.851-.353-.108-.032-.18-.132-.18-.244v-.87c0-.141-.115-.256-.256-.256h-1.66c-.141 0-.255.115-.255.256v.87c0 .112-.073.212-.18.244-.284.084-.557.195-.813.332-.012.007-.026.013-.038.021-.099.054-.221.034-.3-.045l-.615-.615c-.008-.008-.017-.016-.027-.023-.1-.076-.244-.069-.335.023l-1.173 1.173c-.1.1-.1.262 0 .362l.615.615c.079.079.099.202.045.3-.146.268-.264.553-.353.851-.032.107-.133.18-.244.18h-.87c-.141 0-.256.114-.256.256v1.659c0 .141.115.256.256.256h.87c.111 0 .212.072.244.18.088.297.207.582.353.851.053.099.034.221-.045.3l-.615.615c-.1.1-.1.261 0 .362l1.173 1.173c.092.092.236.099.335.023.009-.006.019-.014.027-.023l.615-.615c.079-.079.202-.099.3-.045.012.007.026.013.038.021.256.136.529.248.813.332.107.032.18.132.18.244v.869c0 .142.114.256.255.256h1.66c.141 0 .256-.114.256-.256v-.869c0-.112.072-.212.18-.244.297-.088.582-.208.851-.353.087-.047.192-.037.271.02.01.008.021.016.03.026l.615.615c.092.092.236.099.335.023.009-.007.017-.014.026-.023l1.174-1.173c.1-.101.1-.262 0-.362l-.615-.615c-.08-.079-.099-.202-.045-.3.145-.269.264-.554.353-.851.032-.108.132-.18.244-.18h.869c.142 0 .256-.115.256-.256v-1.659c.001-.144-.114-.258-.256-.258zm-8.82 1.086c0-1.904 1.543-3.447 3.447-3.447s3.447 1.543 3.447 3.447-1.543 3.447-3.447 3.447c-1.215 0-2.283-.629-2.897-1.579l-.281-.531c-.085-.202-.151-.413-.197-.632z" fill="#fa759e"/><path d="m107.441 34.843-6.327-16.268-3.835 4.779c-21.007-15.34-40.312-14.025-53.177-9.925-9.747 3.106-17.117 8.103-21.181 11.313-.406-.1-.824-.169-1.261-.166-2.835.018-5.119 2.331-5.101 5.166s2.331 5.119 5.166 5.101 5.119-2.331 5.101-5.166c-.003-.503-.101-.979-.239-1.438 3.875-2.971 10.603-7.392 19.215-10.104 16.628-5.234 32.868-2.166 48.353 9.113l-3.965 4.941z" fill="#fa759e"/><path d="m16.559 89.158 6.327 16.268 3.835-4.779c21.008 15.34 40.312 14.025 53.177 9.925 9.747-3.106 17.117-8.103 21.181-11.313.406.1.824.169 1.261.166 2.835-.018 5.119-2.331 5.101-5.166s-2.331-5.119-5.166-5.101-5.119 2.331-5.101 5.166c.003.503.101.979.239 1.438-3.875 2.971-10.603 7.392-19.215 10.104-16.628 5.234-32.868 2.166-48.353-9.113l3.965-4.941z" fill="#fa759e"/><g fill="#3a2c60"><path d="m109.196 40.727h-13.329v-.52c0-3.045-2.478-5.522-5.522-5.522h-56.689c-3.045 0-5.523 2.478-5.523 5.522v.52h-13.329c-2.473 0-4.484 2.012-4.484 4.484v4.157 29.42c0 2.473 2.012 4.484 4.484 4.484h13.329v.52c0 3.046 2.478 5.523 5.523 5.523h16.02c.552 0 1-.447 1-1s-.448-1-1-1h-16.02c-1.943 0-3.523-1.581-3.523-3.523v-37.189h63.735v37.189c0 1.942-1.58 3.523-3.522 3.523h-23.096c-.553 0-1 .447-1 1s.447 1 1 1h23.095c3.045 0 5.522-2.478 5.522-5.523v-.52h13.329c2.473 0 4.484-2.012 4.484-4.484v-29.42-4.157c.001-2.472-2.011-4.484-4.484-4.484zm0 2c1.37 0 2.484 1.114 2.484 2.484v3.157h-15.813v-2.766-2.876h13.329zm-96.877 2.485c0-1.37 1.114-2.484 2.484-2.484h13.329v2.876 2.766h-15.813zm2.485 36.061c-1.37 0-2.484-1.114-2.484-2.484v-28.42h15.813v4.52h-11.638c-.552 0-1 .447-1 1s.448 1 1 1h11.638v4.709h-11.638c-.552 0-1 .447-1 1s.448 1 1 1h11.638v4.708h-11.638c-.552 0-1 .447-1 1s.448 1 1 1h11.638v4.708h-11.638c-.552 0-1 .447-1 1s.448 1 1 1h11.638v4.26h-13.329zm15.328-36.67v-4.396c0-1.942 1.581-3.522 3.523-3.522h56.689c1.942 0 3.522 1.58 3.522 3.522v4.396zm79.064 36.67h-13.329v-4.534h11.315c.553 0 1-.447 1-1s-.447-1-1-1h-11.315v-4.708h11.315c.553 0 1-.447 1-1s-.447-1-1-1h-11.315v-4.708h11.315c.553 0 1-.447 1-1s-.447-1-1-1h-11.315v-4.709h11.315c.553 0 1-.447 1-1s-.447-1-1-1h-11.315v-4.245h15.813v28.42c.001 1.37-1.114 2.484-2.484 2.484z"/><path d="m55.617 87.316c-.552 0-1 .447-1 1s.448 1 1 1h6.133c.552 0 1-.447 1-1s-.448-1-1-1z"/><path d="m50.302 81.778c1.053.855 2.378 1.262 3.883 1.262 2.525 0 5.555-1.154 8.646-3.245 3.091 2.092 6.121 3.245 8.646 3.245 1.504 0 2.83-.406 3.883-1.262 2.035-1.655 2.684-4.68 1.89-8.548 3.382-1.769 5.444-4.173 5.444-6.865s-2.063-5.097-5.444-6.865c.795-3.867.146-6.893-1.89-8.548-2.819-2.292-7.596-1.345-12.528 1.991-4.933-3.336-9.709-4.282-12.529-1.991-2.035 1.655-2.684 4.68-1.89 8.548-3.382 1.769-5.444 4.173-5.444 6.865s2.063 5.097 5.444 6.865c-.795 3.868-.147 6.893 1.889 8.548zm1.261-1.553c-1.337-1.087-1.788-3.292-1.292-6.135 2.273.914 4.977 1.573 7.954 1.914.946.928 1.909 1.766 2.872 2.524-3.908 2.501-7.548 3.312-9.534 1.697zm5.132-18.847c.793-.976 1.62-1.888 2.462-2.74 1.19-.115 2.418-.179 3.673-.179s2.483.063 3.673.178c.842.853 1.669 1.764 2.463 2.74 1.319 1.623 2.464 3.305 3.428 4.987-.964 1.682-2.109 3.364-3.428 4.987-.792.975-1.617 1.888-2.457 2.74-1.192.115-2.421.179-3.678.179s-2.486-.063-3.678-.179c-.841-.851-1.665-1.765-2.458-2.74-1.319-1.623-2.465-3.305-3.428-4.987.964-1.681 2.109-3.363 3.428-4.986zm-4.521 2.917c-.598-1.251-1.073-2.484-1.426-3.683 1.545-.638 3.324-1.163 5.281-1.532-.297.342-.595.679-.886 1.037-1.105 1.359-2.093 2.763-2.969 4.178zm9.289-7.803c.455-.385.912-.742 1.367-1.086.456.344.912.701 1.367 1.086-.454-.015-.905-.033-1.367-.033s-.913.018-1.367.033zm8.17 2.587c1.957.369 3.736.895 5.281 1.532-.353 1.198-.829 2.432-1.427 3.683-.876-1.415-1.864-2.819-2.968-4.178-.291-.358-.589-.695-.886-1.037zm.886 13.535c1.105-1.36 2.093-2.764 2.968-4.178.598 1.251 1.073 2.484 1.427 3.683-1.541.636-3.316 1.161-5.268 1.53.293-.338.585-.681.873-1.035zm-6.323 3.624c-.455.384-.91.748-1.365 1.092-.455-.343-.911-.707-1.365-1.092.453.015.903.033 1.365.033.461 0 .912-.018 1.365-.033zm-9.052-3.624c.288.354.58.697.873 1.035-1.952-.369-3.727-.894-5.269-1.53.353-1.198.828-2.432 1.426-3.683.876 1.414 1.864 2.818 2.97 4.178zm18.954 7.611c-1.983 1.614-5.624.803-9.534-1.698.964-.758 1.926-1.596 2.872-2.523 2.977-.341 5.681-1 7.954-1.914.496 2.843.045 5.049-1.292 6.135zm6.595-13.86c0 1.826-1.495 3.528-3.949 4.885-.494-1.592-1.183-3.234-2.058-4.885.875-1.65 1.564-3.293 2.058-4.885 2.454 1.357 3.949 3.059 3.949 4.885zm-9.255-14.699c1.052 0 1.959.27 2.659.839 1.337 1.087 1.788 3.292 1.292 6.135-2.277-.916-4.987-1.576-7.97-1.916-.945-.925-1.904-1.767-2.866-2.523 2.534-1.623 4.955-2.535 6.885-2.535zm-19.875.839c.701-.569 1.607-.839 2.659-.839 1.931 0 4.352.912 6.886 2.535-.962.756-1.921 1.598-2.866 2.523-2.983.34-5.693 1-7.97 1.916-.496-2.843-.046-5.049 1.291-6.135zm-6.595 13.86c0-1.826 1.495-3.528 3.949-4.884.493 1.592 1.183 3.234 2.058 4.884-.875 1.65-1.564 3.293-2.058 4.884-2.454-1.356-3.949-3.058-3.949-4.884z"/><path d="m21.692 35.843h.039c1.638-.01 3.175-.658 4.326-1.824 1.151-1.165 1.78-2.71 1.77-4.349-.002-.333-.038-.675-.109-1.033 4.058-3.045 10.402-7.033 18.385-9.548 15.985-5.03 31.663-2.218 46.612 8.356l-3.306 4.117c-.224.278-.281.655-.151.988.129.333.427.571.779.626l17.252 2.654c.353.057.709-.083.933-.362.224-.278.281-.655.151-.988l-6.327-16.268c-.129-.333-.427-.571-.779-.626-.349-.052-.709.084-.933.362l-3.24 4.038c-21.212-15.111-40.657-13.539-53.296-9.511-9.381 2.989-16.612 7.678-21.126 11.191-.355-.063-.689-.083-1.018-.092-3.382.022-6.116 2.791-6.095 6.173.021 3.369 2.769 6.096 6.133 6.096zm-.027-10.268h.014c.304 0 .624.044 1.002.138.301.074.618.006.86-.186 4.354-3.439 11.508-8.165 20.865-11.146 12.352-3.938 31.449-5.433 52.284 9.78.432.316 1.035.234 1.37-.182l2.751-3.429 5.071 13.039-13.828-2.127 2.882-3.59c.171-.213.247-.487.211-.758s-.182-.516-.402-.677c-15.749-11.467-32.315-14.582-49.243-9.256-8.612 2.713-15.371 7.08-19.523 10.265-.33.254-.469.685-.349 1.083.132.437.194.804.197 1.154.007 1.104-.417 2.146-1.192 2.931-.776.786-1.812 1.223-2.916 1.229-.009 0-.017 0-.026 0-2.267 0-4.119-1.838-4.134-4.107-.015-2.28 1.828-4.146 4.106-4.161z"/><path d="m102.308 88.158c-.013 0-.025 0-.038 0-1.639.01-3.175.658-4.326 1.824-1.151 1.165-1.779 2.71-1.77 4.35.003.333.039.675.109 1.032-4.062 3.046-10.408 7.036-18.385 9.548-15.985 5.03-31.662 2.22-46.613-8.355l3.305-4.118c.224-.278.282-.655.152-.988s-.427-.571-.78-.626l-17.252-2.655c-.353-.053-.708.084-.932.362s-.282.655-.152.988l6.328 16.268c.13.333.427.571.78.626.354.055.708-.084.932-.362l3.24-4.037c13.009 9.267 25.35 12.26 35.867 12.259 6.632 0 12.541-1.19 17.428-2.748 9.379-2.988 16.61-7.677 21.127-11.19.358.063.712.088 1.018.091 1.639-.01 3.176-.658 4.326-1.824 1.151-1.165 1.779-2.71 1.77-4.348-.021-3.37-2.769-6.097-6.134-6.097zm2.941 9.038c-.775.786-1.812 1.223-2.916 1.229-.315-.017-.626-.042-1.016-.137-.296-.074-.615-.006-.858.186-4.355 3.439-11.512 8.165-20.865 11.145-12.352 3.938-31.447 5.436-52.283-9.779-.178-.13-.384-.192-.589-.192-.293 0-.583.129-.78.374l-2.75 3.428-5.073-13.04 13.828 2.127-2.881 3.591c-.171.213-.248.487-.211.758.036.271.182.516.402.677 15.748 11.47 32.315 14.582 49.243 9.258 8.605-2.71 15.366-7.077 19.522-10.264.33-.253.469-.684.35-1.081-.132-.439-.194-.808-.197-1.157-.014-2.28 1.828-4.146 4.107-4.16h.026c2.268 0 4.12 1.837 4.134 4.107.006 1.104-.418 2.145-1.193 2.93z"/></g></svg>